<svg width="24" height="25" viewBox="0 0 24 25" fill="none" xmlns="http://www.w3.org/2000/svg">
<g clip-path="url(#clip0_2211_552)">
<path d="M9.87381 12.011C10.3718 11.7605 10.7484 11.4815 11.0064 11.18C11.4654 10.6369 11.692 9.91686 11.692 9.02429C11.692 8.15571 11.4654 7.41316 11.0124 6.7906C10.2563 5.77651 8.97673 5.25747 7.16758 5.23047H0V19.8612H6.68304C7.43612 19.8612 8.13368 19.7966 8.77871 19.6646C9.42377 19.5311 9.98182 19.2866 10.4544 18.9296C10.8744 18.6191 11.2254 18.2335 11.5044 17.779C11.9455 17.0919 12.166 16.3134 12.166 15.4463C12.166 14.6062 11.9725 13.8907 11.5885 13.3026C11.1999 12.7146 10.6299 12.284 9.87381 12.011ZM2.95674 7.77168H6.18501C6.89456 7.77168 7.47962 7.84817 7.93866 7.99969C8.46969 8.22021 8.73521 8.66875 8.73521 9.35281C8.73521 9.96636 8.53269 10.3954 8.13218 10.6369C7.72864 10.8784 7.2051 10.9999 6.56304 10.9999H2.95674V7.77168ZM8.06166 17.0649C7.70464 17.2375 7.2021 17.323 6.55854 17.323H2.95674V13.4211H6.60804C7.2441 13.4256 7.73914 13.5096 8.09316 13.6672C8.72321 13.9522 9.03675 14.4742 9.03675 15.2378C9.03675 16.1379 8.71271 16.7439 8.06166 17.0649Z" fill="#E8E8E8"/>
<path d="M21.693 5.91211H15.3369V7.73326H21.693V5.91211Z" fill="white"/>
<path d="M23.9014 13.1002C23.7694 12.2527 23.4784 11.5071 23.0254 10.8635C22.5289 10.1345 21.8988 9.60042 21.1323 9.26291C20.3688 8.92387 19.5091 8.75437 18.5521 8.75587C16.9454 8.75587 15.6403 9.25841 14.6307 10.256C13.6242 11.2566 13.1201 12.6952 13.1201 14.5703C13.1201 16.57 13.6767 18.0146 14.7957 18.9012C15.9103 19.7893 17.1975 20.2318 18.6586 20.2318C20.4273 20.2318 21.8028 19.7053 22.7854 18.6552C23.4139 17.9921 23.7694 17.3396 23.8474 16.699H20.9193C20.7498 17.0155 20.5533 17.2631 20.3283 17.4431C19.9203 17.7731 19.3891 17.9381 18.7381 17.9381C18.1185 17.9381 17.5935 17.8016 17.1555 17.5301C16.4324 17.095 16.0544 16.333 16.0064 15.2484H23.9974C24.0094 14.3138 23.9794 13.5953 23.9014 13.1002ZM16.0784 13.3807C16.1834 12.6772 16.4384 12.1191 16.8434 11.7066C17.2485 11.2956 17.8215 11.0886 18.5551 11.0871C19.2316 11.0871 19.7973 11.2806 20.2578 11.6691C20.7123 12.0606 20.9688 12.6292 21.0213 13.3807H16.0784Z" fill="#E8E8E8"/>
</g>
<defs>
<clipPath id="clip0_2211_552">
<rect width="24" height="24" fill="white" transform="translate(0 0.730469)"/>
</clipPath>
</defs>
</svg>
