<svg width="24" height="25" viewBox="0 0 24 25" fill="none" xmlns="http://www.w3.org/2000/svg">
<g clip-path="url(#clip0_2211_524)">
<path d="M16.5 0.730469H7.5C3.3585 0.730469 0 4.08897 0 8.23047V17.2305C0 21.372 3.3585 24.7305 7.5 24.7305H16.5C20.6415 24.7305 24 21.372 24 17.2305V8.23047C24 4.08897 20.6415 0.730469 16.5 0.730469ZM21.75 17.2305C21.75 20.1255 19.395 22.4805 16.5 22.4805H7.5C4.605 22.4805 2.25 20.1255 2.25 17.2305V8.23047C2.25 5.33547 4.605 2.98047 7.5 2.98047H16.5C19.395 2.98047 21.75 5.33547 21.75 8.23047V17.2305Z" fill="#E8E8E8"/>
<path d="M12 6.73047C8.6865 6.73047 6 9.41697 6 12.7305C6 16.044 8.6865 18.7305 12 18.7305C15.3135 18.7305 18 16.044 18 12.7305C18 9.41697 15.3135 6.73047 12 6.73047ZM12 16.4805C9.933 16.4805 8.25 14.7975 8.25 12.7305C8.25 10.662 9.933 8.98047 12 8.98047C14.067 8.98047 15.75 10.662 15.75 12.7305C15.75 14.7975 14.067 16.4805 12 16.4805Z" fill="#E8E8E8"/>
<path d="M18.4499 7.07947C18.8915 7.07947 19.2494 6.72151 19.2494 6.27997C19.2494 5.83841 18.8915 5.48047 18.4499 5.48047C18.0083 5.48047 17.6504 5.83841 17.6504 6.27997C17.6504 6.72151 18.0083 7.07947 18.4499 7.07947Z" fill="#E8E8E8"/>
</g>
<defs>
<clipPath id="clip0_2211_524">
<rect width="24" height="24" fill="white" transform="translate(0 0.730469)"/>
</clipPath>
</defs>
</svg>
