<svg width="24" height="25" viewBox="0 0 24 25" fill="none" xmlns="http://www.w3.org/2000/svg">
<g clip-path="url(#clip0_2211_535)">
<path d="M5.367 8.23047H0V24.7305H5.367V8.23047Z" fill="#E8E8E8"/>
<path d="M19.986 8.42397C19.929 8.40597 19.875 8.38647 19.815 8.36997C19.743 8.35347 19.671 8.33997 19.5975 8.32797C19.3125 8.27097 19.0005 8.23047 18.6345 8.23047C15.5055 8.23047 13.521 10.506 12.867 11.385V8.23047H7.5V24.7305H12.867V15.7305C12.867 15.7305 16.923 10.0815 18.6345 14.2305C18.6345 17.934 18.6345 24.7305 18.6345 24.7305H24V13.596C24 11.103 22.2915 9.02547 19.986 8.42397Z" fill="#E8E8E8"/>
<path d="M2.625 5.98047C4.07475 5.98047 5.25 4.80522 5.25 3.35547C5.25 1.90572 4.07475 0.730469 2.625 0.730469C1.17525 0.730469 0 1.90572 0 3.35547C0 4.80522 1.17525 5.98047 2.625 5.98047Z" fill="#E8E8E8"/>
</g>
<defs>
<clipPath id="clip0_2211_535">
<rect width="24" height="24" fill="white" transform="translate(0 0.730469)"/>
</clipPath>
</defs>
</svg>
