<svg width="88" height="75" viewBox="0 0 88 75" fill="none" xmlns="http://www.w3.org/2000/svg">
<path d="M22.608 31.68C22.448 32 21.936 32.88 21.072 34.32C21.872 34.8 22.432 35.104 22.752 35.232C24.448 35.872 25.712 36.848 26.544 38.16C27.408 39.44 27.84 40.864 27.84 42.432C27.84 43.968 27.44 45.488 26.64 46.992C24.656 50.672 21.456 53.616 17.04 55.824C15.952 56.368 14.88 56.64 13.824 56.64C12.288 56.64 10.864 56.096 9.552 55.008C9.04 54.592 8.432 54.128 7.728 53.616C7.664 53.808 7.584 54.032 7.488 54.288C7.424 54.576 7.344 54.784 7.248 54.912C6.864 55.488 6.384 55.776 5.808 55.776C5.296 55.776 4.832 55.568 4.416 55.152C3.264 54.096 2.688 52.896 2.688 51.552C2.688 50.528 2.672 49.632 2.64 48.864C2.608 48.096 2.576 47.456 2.544 46.944C2.512 46.304 2.48 45.504 2.448 44.544C2.416 43.584 2.4 42.464 2.4 41.184C2.4 38.752 2.528 36.576 2.784 34.656C3.136 31.84 3.808 29.2 4.8 26.736C5.568 24.88 6.704 23.424 8.208 22.368C9.744 21.312 11.552 20.688 13.632 20.496C14.592 20.432 15.328 20.4 15.84 20.4C18.208 20.4 20.192 20.912 21.792 21.936C22.624 22.448 23.264 23.12 23.712 23.952C24.192 24.784 24.432 25.68 24.432 26.64C24.432 27.44 24.256 28.24 23.904 29.04L23.424 30C23.2 30.512 22.928 31.072 22.608 31.68ZM18.816 27.696C18.976 27.28 19.12 26.592 19.248 25.632L19.392 24.576C18.432 24.16 17.52 23.952 16.656 23.952C15.92 23.952 15.232 24.064 14.592 24.288C13.216 24.736 12.064 25.424 11.136 26.352C10.24 27.248 9.52 28.24 8.976 29.328C8.464 30.416 7.952 31.76 7.44 33.36C7.056 34.608 6.864 36 6.864 37.536C6.864 38.368 6.928 39.584 7.056 41.184C7.12 41.664 7.184 42.448 7.248 43.536C7.28 44.4 7.456 46.176 7.776 48.864L7.968 50.448C8.16 50.512 8.48 50.576 8.928 50.64C9.536 50.704 10 50.832 10.32 51.024C10.608 51.184 10.896 51.456 11.184 51.84C11.472 52.192 11.696 52.464 11.856 52.656C13.776 52.272 15.408 51.488 16.752 50.304C18.128 49.12 19.472 47.584 20.784 45.696C21.776 44.16 22.4 42.784 22.656 41.568C22.752 41.088 22.8 40.656 22.8 40.272C22.8 39.408 22.56 38.752 22.08 38.304C21.632 37.856 21.008 37.632 20.208 37.632C19.728 37.632 19.28 37.696 18.864 37.824C17.424 38.24 15.952 39.152 14.448 40.56C13.68 41.232 12.912 41.568 12.144 41.568C11.664 41.568 11.168 41.424 10.656 41.136C10.048 40.784 9.536 40.4 9.12 39.984C8.704 39.568 8.352 39.024 8.064 38.352L9.168 37.584C10.32 36.752 11.2 36.16 11.808 35.808C14.912 34.144 17.248 31.44 18.816 27.696ZM70.0744 28.272C70.2664 29.648 70.4584 31.648 70.6504 34.272L70.7464 36.768C70.7464 41.408 71.3544 45.552 72.5704 49.2C72.7304 49.712 72.8104 50.368 72.8104 51.168C72.8104 51.616 72.7784 52.224 72.7144 52.992C72.6824 53.504 72.4904 53.904 72.1384 54.192C71.7864 54.512 71.3384 54.672 70.7944 54.672C70.7304 54.672 70.5544 54.64 70.2664 54.576C69.4664 54.384 68.8584 54.032 68.4424 53.52C68.0264 52.976 67.8184 52.32 67.8184 51.552C67.8184 51.296 67.8344 51.104 67.8664 50.976C67.8664 50.784 67.8664 50.512 67.8664 50.16C67.8664 49.584 67.8344 49.056 67.7704 48.576C67.5144 47.328 67.1144 45.664 66.5704 43.584C66.3784 42.72 65.9784 42.288 65.3704 42.288C65.1464 42.288 64.8904 42.336 64.6024 42.432C63.6104 42.72 62.7304 42.992 61.9624 43.248C61.2264 43.504 60.5704 43.712 59.9944 43.872L57.6904 44.544C56.3784 44.928 55.1624 45.232 54.0424 45.456C52.8584 45.712 51.9944 46.368 51.4504 47.424C50.9384 48.384 50.2024 49.68 49.2424 51.312C48.6344 52.4 47.8344 52.944 46.8424 52.944C46.3624 52.944 45.8824 52.832 45.4024 52.608C44.9544 52.352 44.5704 52.032 44.2504 51.648C43.7704 51.104 43.5304 50.576 43.5304 50.064C43.5304 49.712 43.6264 49.344 43.8184 48.96L47.1304 42.24C50.7784 34.816 52.9544 30.368 53.6584 28.896C55.6744 24.992 58.4104 22.304 61.8664 20.832C62.6024 20.48 63.3544 20.304 64.1224 20.304C65.0824 20.304 65.9624 20.56 66.7624 21.072C67.5944 21.552 68.2344 22.24 68.6824 23.136C69.3224 24.448 69.7864 26.16 70.0744 28.272ZM54.5704 40.416C58.9544 39.648 62.6824 39.024 65.7544 38.544C65.6904 35.472 65.5944 33.056 65.4664 31.296C65.3704 29.504 65.1464 27.712 64.7944 25.92C63.0984 26.112 61.8184 26.944 60.9544 28.416C59.4504 30.784 58.0104 33.232 56.6344 35.76C56.4104 36.176 55.9944 37.104 55.3864 38.544L54.5704 40.416Z" fill="white"/>
<circle cx="35.5" cy="48.5" r="5.5" fill="white"/>
<circle cx="82.5" cy="48.5" r="5.5" fill="white"/>
</svg>
